<?xml version="1.0" encoding="utf-8"?>
<!-- Generator: Adobe Illustrator 19.1.0, SVG Export Plug-In . SVG Version: 6.00 Build 0)  -->
<svg version="1.1" id="Layer_1" xmlns="http://www.w3.org/2000/svg" xmlns:xlink="http://www.w3.org/1999/xlink" x="0px" y="0px"
	 viewBox="0 0 24 24" style="enable-background:new 0 0 24 24;" xml:space="preserve">
<path d="M17.3,6.7c-3-3-7.7-3-10.7,0s-3,7.7,0,10.7s7.7,3,10.7,0S20.3,9.6,17.3,6.7z M11.7,5.9c0-0.2,0.2-0.4,0.4-0.4
	s0.4,0.2,0.4,0.4v0.5c0,0.2-0.2,0.4-0.4,0.4s-0.4-0.2-0.4-0.4V5.9z M7.4,7.3c0.2-0.2,0.4-0.2,0.6,0l0.4,0.4c0.2,0.2,0.2,0.4,0,0.6
	C8.2,8.4,8,8.4,7.8,8.3L7.4,7.9C7.3,7.7,7.3,7.5,7.4,7.3z M6.4,12.3H5.9c-0.2,0-0.4-0.2-0.4-0.4s0.2-0.4,0.4-0.4h0.5
	c0.2,0,0.4,0.2,0.4,0.4S6.6,12.3,6.4,12.3z M12.3,18.1c0,0.2-0.2,0.4-0.4,0.4s-0.4-0.2-0.4-0.4v-0.5c0-0.2,0.2-0.4,0.4-0.4
	s0.4,0.2,0.4,0.4V18.1z M16.6,16.7c-0.2,0.2-0.4,0.2-0.6,0l-0.4-0.4c-0.2-0.2-0.2-0.4,0-0.6c0.2-0.2,0.4-0.2,0.6,0l0.4,0.4
	C16.7,16.3,16.7,16.5,16.6,16.7z M12.9,12.6l-5.6,4.1l4.1-5.6L17,7L12.9,12.6z M18.1,12.5h-0.5c-0.2,0-0.4-0.2-0.4-0.4
	s0.2-0.4,0.4-0.4h0.5c0.2,0,0.4,0.2,0.4,0.4S18.4,12.5,18.1,12.5z"/>
</svg>
