<?xml version="1.0" encoding="utf-8"?>
<!-- Generator: Adobe Illustrator 19.1.0, SVG Export Plug-In . SVG Version: 6.00 Build 0)  -->
<svg version="1.1" id="Layer_1" xmlns="http://www.w3.org/2000/svg" xmlns:xlink="http://www.w3.org/1999/xlink" x="0px" y="0px"
	 viewBox="0 0 24 24" style="enable-background:new 0 0 24 24;" xml:space="preserve">
<style type="text/css">
	.st0{fill:#010101;}
</style>
<g id="print">
	<path class="st0" d="M17.5,8.7H6.3c-1.4,0-2.4,1-2.4,2.4l0,4.8h3.3l0,3.3h9.6V16h3.3v-4.8C19.8,9.8,18.8,8.7,17.5,8.7z M15.1,17.5
		H8.7v-4h6.4V17.5z M17.4,11.9c-0.4,0-0.8-0.4-0.8-0.8c0-0.4,0.4-0.8,0.8-0.8c0.4,0,0.8,0.4,0.8,0.8C18.2,11.6,17.9,11.9,17.4,11.9z
		 M16.7,4.8H7.1V8l9.6,0V4.8z"/>
</g>
</svg>
