<?xml version="1.0" encoding="utf-8"?>
<!-- Generator: Adobe Illustrator 19.2.1, SVG Export Plug-In . SVG Version: 6.00 Build 0)  -->
<svg version="1.1" id="Layer_1" xmlns="http://www.w3.org/2000/svg" xmlns:xlink="http://www.w3.org/1999/xlink" x="0px" y="0px"
	 viewBox="0 0 24 24" style="enable-background:new 0 0 24 24;" xml:space="preserve">
<g>
	<path d="M19.69,2.12H4.31c-1.22,0-2.2,0.98-2.2,2.2v15.37c0,1.21,0.98,2.2,2.2,2.2h15.37c1.21,0,2.2-0.98,2.2-2.2V4.31
		C21.88,3.09,20.9,2.12,19.69,2.12z M19.03,18.5c0,0.36-0.36,0.61-0.7,0.49l-4.46-1.63V15.2c0.2,0.09,0.42,0.16,0.64,0.21
		c0.22,0.05,0.46,0.07,0.71,0.07c0.46,0,0.86-0.08,1.21-0.25c0.35-0.16,0.65-0.39,0.88-0.69c0.24-0.29,0.42-0.65,0.54-1.05
		c0.12-0.41,0.18-0.86,0.18-1.36c0-0.51-0.08-0.98-0.23-1.4c-0.15-0.42-0.37-0.77-0.66-1.06C16.87,9.39,16.52,9.16,16.1,9
		c-0.42-0.16-0.89-0.24-1.42-0.24c-0.22,0-0.45,0.01-0.69,0.03c-0.24,0.02-0.48,0.05-0.71,0.08c-0.23,0.03-0.46,0.07-0.67,0.12
		c-0.21,0.05-0.4,0.09-0.56,0.14v7.52l-6.38,2.33c-0.34,0.12-0.7-0.13-0.7-0.49V7.87c0-0.22,0.14-0.41,0.34-0.49l6.51-2.37
		c0.11-0.04,0.24-0.04,0.36,0l6.51,2.37c0.2,0.08,0.34,0.27,0.34,0.49V18.5z M13.87,13.68v-3.3c0.09-0.02,0.2-0.03,0.34-0.04
		c0.14-0.01,0.29-0.02,0.45-0.02c0.5,0,0.87,0.17,1.13,0.51c0.25,0.34,0.38,0.79,0.38,1.35c0,1.17-0.43,1.75-1.3,1.75
		c-0.19,0-0.37-0.03-0.56-0.07C14.13,13.81,13.98,13.75,13.87,13.68z"/>
	<path d="M9.53,9.09v4.85c-0.11,0.01-0.23,0.03-0.37,0.04C9.02,14,8.89,14,8.76,14c-0.41,0-0.68-0.13-0.83-0.37
		s-0.22-0.65-0.22-1.22V9.09c0,0-0.41-0.07-0.85-0.07S5.96,9.09,5.96,9.09v3.53c0,0.42,0.04,0.81,0.13,1.16
		c0.08,0.35,0.23,0.65,0.43,0.91c0.2,0.25,0.48,0.45,0.82,0.59c0.35,0.14,0.78,0.21,1.3,0.21c0.51,0,1-0.04,1.47-0.11
		c0.47-0.07,0.85-0.15,1.15-0.24h0V9.09c0,0-0.4-0.07-0.87-0.07C9.94,9.02,9.53,9.09,9.53,9.09z"/>
</g>
</svg>
