<?xml version="1.0" encoding="utf-8"?>
<!-- Generator: Adobe Illustrator 19.2.1, SVG Export Plug-In . SVG Version: 6.00 Build 0)  -->
<svg version="1.1" id="Layer_1" xmlns="http://www.w3.org/2000/svg" xmlns:xlink="http://www.w3.org/1999/xlink" x="0px" y="0px"
	 viewBox="0 0 24 24" style="enable-background:new 0 0 24 24;" xml:space="preserve">
<style type="text/css">
	.st0{fill:#010101;}
</style>
<g>
	<path class="st0" d="M17.75,12.25c0-0.78-0.17-1.4-0.52-1.87c-0.35-0.47-0.87-0.7-1.55-0.7c-0.23,0-0.43,0.01-0.63,0.03
		c-0.19,0.02-0.35,0.04-0.47,0.06v4.54c0.16,0.1,0.36,0.19,0.62,0.25c0.25,0.07,0.51,0.1,0.77,0.1
		C17.16,14.67,17.75,13.87,17.75,12.25z"/>
	<path class="st0" d="M21.22,5.64l-8.98-3.27c-0.16-0.06-0.33-0.06-0.49,0L2.78,5.63C2.49,5.73,2.31,6,2.31,6.3v14.65
		c0,0.5,0.49,0.84,0.96,0.67l8.79-3.21V8.05c0.22-0.07,0.48-0.13,0.78-0.19c0.29-0.06,0.6-0.12,0.92-0.16
		c0.32-0.04,0.65-0.08,0.98-0.11c0.33-0.03,0.65-0.04,0.95-0.04c0.73,0,1.39,0.11,1.96,0.33c0.57,0.22,1.06,0.53,1.45,0.93
		c0.39,0.4,0.69,0.89,0.9,1.46c0.21,0.57,0.31,1.22,0.31,1.93c0,0.69-0.08,1.31-0.25,1.88c-0.17,0.56-0.42,1.05-0.74,1.45
		c-0.33,0.4-0.73,0.72-1.22,0.95c-0.48,0.22-1.04,0.34-1.67,0.34c-0.35,0-0.68-0.03-0.98-0.1c-0.3-0.07-0.6-0.16-0.88-0.29v2.99
		l6.15,2.24c0.47,0.17,0.96-0.18,0.96-0.67V6.31C21.69,6.01,21.51,5.74,21.22,5.64z M11,16.32c-0.41,0.12-0.94,0.23-1.58,0.33
		c-0.65,0.1-1.32,0.15-2.03,0.15c-0.72,0-1.32-0.1-1.8-0.29c-0.48-0.19-0.86-0.46-1.14-0.82c-0.28-0.35-0.48-0.77-0.6-1.25
		c-0.12-0.48-0.18-1.02-0.18-1.6V7.99c0,0,0.63-0.1,1.23-0.1s1.17,0.1,1.17,0.1v4.58c0,0.77,0.1,1.33,0.31,1.68
		c0.2,0.34,0.58,0.52,1.15,0.52c0.17,0,0.35-0.01,0.55-0.02s0.37-0.04,0.52-0.06V7.99c0,0,0.56-0.1,1.21-0.1s1.2,0.1,1.2,0.1
		L11,16.32L11,16.32z"/>
</g>
</svg>
