<?xml version="1.0" encoding="utf-8"?>
<!-- Generator: Adobe Illustrator 19.1.0, SVG Export Plug-In . SVG Version: 6.00 Build 0)  -->
<svg version="1.1" id="Layer_2" xmlns="http://www.w3.org/2000/svg" xmlns:xlink="http://www.w3.org/1999/xlink" x="0px" y="0px"
	 viewBox="0 0 24 24" style="enable-background:new 0 0 24 24;" xml:space="preserve">
<g id="seal">
	<path d="M18.6,17.8l-3.2-1.1L14.4,20l-2.5-4.7L9.6,20l-1.1-3.2l-3.2,1.1l2.3-4.7c-0.7-1-1.2-2.2-1.2-3.5C6.5,6.5,9,4,12.1,4
		c3.1,0,5.6,2.5,5.6,5.6c0,1.3-0.4,2.5-1.2,3.5L18.6,17.8 M8,9.6l2.2,1.1L10,13l2.1-1.3l2,1.3l-0.1-2.4l2.1-1l-2.2-1.1L14,6.1
		l-2,1.3l-2-1.3l0.1,2.4L8,9.6z"/>
</g>
</svg>
