<?xml version="1.0" encoding="utf-8"?>
<!-- Generator: Adobe Illustrator 19.1.0, SVG Export Plug-In . SVG Version: 6.00 Build 0)  -->
<svg version="1.1" id="Layer_1" xmlns="http://www.w3.org/2000/svg" xmlns:xlink="http://www.w3.org/1999/xlink" x="0px" y="0px"
	 viewBox="0 0 24 24" style="enable-background:new 0 0 24 24;" xml:space="preserve">
<g id="thumbs_up">
	<path d="M3.2,19.9h3.3v-9.6l-3.3,0.1V19.9z M20.8,11.2c0-0.8-0.7-1.6-1.6-1.6h-4.9L15,5.9V5.6c0-0.3-0.2-0.6-0.3-0.8L13.8,4
		L8.5,9.2C8.2,9.5,8,9.9,8.1,10.4v7.9c0,0.8,0.7,1.6,1.6,1.6l7,0.1c0.7,0,1.2-0.4,1.4-1l2.4-5.7c0.1-0.1,0.1-0.3,0.1-0.6L20.8,11.2
		L20.8,11.2L20.8,11.2z"/>
</g>
</svg>
