<?xml version="1.0" encoding="UTF-8" standalone="no"?>
<!-- Created with Inkscape (http://www.inkscape.org/) -->
<svg
   xmlns:svg="http://www.w3.org/2000/svg"
   xmlns="http://www.w3.org/2000/svg"
   version="1.0"
   width="138.2"
   height="64.400002"
   id="svg2"
   xml:space="preserve"><defs
     id="defs5"><clipPath
       id="clipPath19"><path
         d="M 0,0 L 594,0 L 594,774 L 0,774 L 0,0 z"
         id="path21" /></clipPath><clipPath
       id="clipPath41"><path
         d="M 295,137.976 L 381.601,137.976 L 381.601,188 L 295,188 L 295,137.976 z"
         id="path43" /></clipPath><clipPath
       id="clipPath205"><path
         d="M 0,0 L 594,0 L 594,774 L 0,774 L 0,0 z"
         id="path207" /></clipPath><clipPath
       id="clipPath217"><path
         d="M 423,127.394 L 556.068,127.394 L 556.068,201.42 L 423,201.42 L 423,127.394 z"
         id="path219" /></clipPath><linearGradient
       x1="0"
       y1="0"
       x2="1"
       y2="0"
       id="linearGradient309"
       gradientUnits="userSpaceOnUse"
       gradientTransform="matrix(-10.420944,-10.899979,10.899979,-10.420944,472.02834,189.01831)"
       spreadMethod="pad"><stop
         id="stop311"
         style="stop-color:#deec4e;stop-opacity:1"
         offset="0" /><stop
         id="stop313"
         style="stop-color:#466d12;stop-opacity:1"
         offset="1" /></linearGradient><clipPath
       id="clipPath321"><path
         d="M 423,127.394 L 556.068,127.394 L 556.068,201.42 L 423,201.42 L 423,127.394 z"
         id="path323" /></clipPath></defs><g
     transform="matrix(1.25,0,0,-1.25,-544.32263,236.21833)"
     id="g11"><g
       id="g213"><g
         clip-path="url(#clipPath217)"
         id="g215"><g
           transform="translate(490.63508,154.66159)"
           id="g221"
           style="fill:#4d6e15;fill-opacity:1"><path
             d="M 0,0 C 1.74,0 2.297,-1.309 2.634,-2.737 C 1.056,-3.248 -0.873,-3.736 -2.56,-4.049 C -2.544,-3.43 -2.347,0 0,0 M -3.379,-0.405 L -3.379,-0.405 C -4.597,-1.623 -5.241,-3.32 -5.241,-5.311 C -5.241,-8.726 -2.825,-11.112 0.632,-11.112 C 3.265,-11.112 4.935,-9.8 5.005,-9.744 L 5.036,-9.721 L 5.021,-9.684 C 4.954,-9.515 4.583,-8.677 3.975,-8.872 C 3.288,-9.203 2.594,-9.363 1.849,-9.363 C -1.075,-9.363 -2.173,-6.969 -2.37,-5.519 C -0.475,-5.072 2.341,-4.321 5.12,-2.955 C 5.12,-2.956 5.18,-2.927 5.18,-2.927 C 5.181,-2.927 5.337,-2.848 5.337,-2.848 L 5.281,-2.613 C 5.092,-1.828 4.813,-0.923 4.183,-0.162 C 3.386,0.803 2.216,1.292 0.706,1.292 C -0.811,1.292 -2.3,0.673 -3.379,-0.405"
             id="path223"
             style="fill:#4d6e15;fill-opacity:1;fill-rule:nonzero;stroke:none" /></g><g
           transform="translate(489.4036,155.5852)"
           id="g225"
           style="fill:#4d6e15;fill-opacity:1"><path
             d="M 1.2314839,-0.92361291 C 2.9714839,-0.92361291 3.5284839,-2.2326129 3.8654839,-3.6606129 C 2.2874839,-4.1716129 0.35848388,-4.6596129 -1.3285161,-4.9726129 C -1.3125161,-4.3536129 -1.1155161,-0.92361291 1.2314839,-0.92361291 M -2.1475161,-1.3286129 L -2.1475161,-1.3286129 C -3.3655161,-2.5466129 -4.0095161,-4.2436129 -4.0095161,-6.2346129 C -4.0095161,-9.6496129 -1.5935161,-12.035613 1.8634839,-12.035613 C 4.4964839,-12.035613 6.1664839,-10.723613 6.2364839,-10.667613 L 6.2674839,-10.644613 L 6.2524839,-10.607613 C 6.1854839,-10.438613 5.8144839,-9.6006129 5.2064839,-9.7956129 C 4.5194839,-10.126613 3.8254839,-10.286613 3.0804839,-10.286613 C 0.15648388,-10.286613 -0.94151612,-7.8926129 -1.1385161,-6.4426129 C 0.75648388,-5.9956129 3.5724839,-5.2446129 6.3514839,-3.8786129 C 6.3514839,-3.8796129 6.4114839,-3.8506129 6.4114839,-3.8506129 C 6.4124839,-3.8506129 6.5684839,-3.7716129 6.5684839,-3.7716129 L 6.5124839,-3.5366129 C 6.3234839,-2.7516129 6.0444839,-1.8466129 5.4144839,-1.0856129 C 4.6174839,-0.12061291 3.4474839,0.36838709 1.9374839,0.36838709 C 0.42048388,0.36838709 -1.0685161,-0.25061291 -2.1475161,-1.3286129"
             id="path227"
             style="fill:#4d6e15;fill-opacity:1;fill-rule:nonzero;stroke:none" /></g><g
           transform="translate(514.73358,154.66159)"
           id="g229"
           style="fill:#4d6e15;fill-opacity:1"><path
             d="M 0,0 C 1.74,0 2.297,-1.309 2.633,-2.737 C 1.055,-3.248 -0.874,-3.736 -2.56,-4.049 C -2.544,-3.43 -2.347,0 0,0 M -3.379,-0.405 L -3.38,-0.405 C -4.597,-1.623 -5.241,-3.319 -5.241,-5.311 C -5.241,-8.726 -2.826,-11.112 0.632,-11.112 C 3.264,-11.112 4.935,-9.8 5.005,-9.744 L 5.035,-9.721 L 5.021,-9.684 C 4.953,-9.515 4.583,-8.677 3.975,-8.871 C 3.288,-9.203 2.594,-9.363 1.849,-9.363 C -1.075,-9.363 -2.173,-6.969 -2.37,-5.52 C -0.476,-5.073 2.341,-4.321 5.12,-2.955 C 5.119,-2.956 5.179,-2.927 5.179,-2.927 C 5.179,-2.927 5.338,-2.848 5.338,-2.848 L 5.281,-2.613 C 5.092,-1.828 4.815,-0.925 4.183,-0.162 C 3.386,0.803 2.216,1.292 0.705,1.292 C -0.812,1.292 -2.301,0.673 -3.379,-0.405"
             id="path231"
             style="fill:#4d6e15;fill-opacity:1;fill-rule:nonzero;stroke:none" /></g><g
           transform="translate(514.73358,154.66159)"
           id="g233"
           style="fill:#4d6e15;fill-opacity:1"><path
             d="M 0,0 C 1.74,0 2.297,-1.309 2.633,-2.737 C 1.055,-3.248 -0.874,-3.736 -2.56,-4.049 C -2.544,-3.43 -2.347,0 0,0 M -3.379,-0.405 L -3.38,-0.405 C -4.597,-1.623 -5.241,-3.319 -5.241,-5.311 C -5.241,-8.726 -2.826,-11.112 0.632,-11.112 C 3.264,-11.112 4.935,-9.8 5.005,-9.744 L 5.035,-9.721 L 5.021,-9.684 C 4.953,-9.515 4.583,-8.677 3.975,-8.871 C 3.288,-9.203 2.594,-9.363 1.849,-9.363 C -1.075,-9.363 -2.173,-6.969 -2.37,-5.52 C -0.476,-5.073 2.341,-4.321 5.12,-2.955 C 5.119,-2.956 5.179,-2.927 5.179,-2.927 C 5.179,-2.927 5.338,-2.848 5.338,-2.848 L 5.281,-2.613 C 5.092,-1.828 4.815,-0.925 4.183,-0.162 C 3.386,0.803 2.216,1.292 0.705,1.292 C -0.812,1.292 -2.301,0.673 -3.379,-0.405"
             id="path235"
             style="fill:#4d6e15;fill-opacity:1;fill-rule:nonzero;stroke:none" /></g><g
           transform="translate(525.80108,154.66159)"
           id="g237"
           style="fill:#4d6e15;fill-opacity:1"><path
             d="M 0,0 C 1.739,0 2.297,-1.309 2.632,-2.737 C 1.055,-3.248 -0.874,-3.736 -2.56,-4.049 C -2.544,-3.43 -2.347,0 0,0 M -3.38,-0.405 L -3.38,-0.405 C -4.597,-1.623 -5.242,-3.32 -5.242,-5.311 C -5.242,-8.726 -2.826,-11.112 0.632,-11.112 C 3.265,-11.112 4.935,-9.8 5.005,-9.744 L 5.034,-9.721 L 5.021,-9.684 C 4.953,-9.515 4.584,-8.677 3.975,-8.871 C 3.287,-9.203 2.594,-9.363 1.848,-9.363 C -1.075,-9.363 -2.174,-6.969 -2.37,-5.519 C -0.476,-5.073 2.34,-4.321 5.12,-2.955 C 5.119,-2.956 5.179,-2.927 5.179,-2.927 C 5.179,-2.927 5.337,-2.848 5.337,-2.848 L 5.281,-2.613 C 5.093,-1.828 4.814,-0.925 4.183,-0.162 C 3.386,0.803 2.216,1.292 0.705,1.292 C -0.811,1.292 -2.301,0.673 -3.38,-0.405"
             id="path239"
             style="fill:#4d6e15;fill-opacity:1;fill-rule:nonzero;stroke:none" /></g><g
           transform="translate(525.80108,154.66159)"
           id="g241"
           style="fill:#4d6e15;fill-opacity:1"><path
             d="M 0,0 C 1.739,0 2.297,-1.309 2.632,-2.737 C 1.055,-3.248 -0.874,-3.736 -2.56,-4.049 C -2.544,-3.43 -2.347,0 0,0 M -3.38,-0.405 L -3.38,-0.405 C -4.597,-1.623 -5.242,-3.32 -5.242,-5.311 C -5.242,-8.726 -2.826,-11.112 0.632,-11.112 C 3.265,-11.112 4.935,-9.8 5.005,-9.744 L 5.034,-9.721 L 5.021,-9.684 C 4.953,-9.515 4.584,-8.677 3.975,-8.871 C 3.287,-9.203 2.594,-9.363 1.848,-9.363 C -1.075,-9.363 -2.174,-6.969 -2.37,-5.519 C -0.476,-5.073 2.34,-4.321 5.12,-2.955 C 5.119,-2.956 5.179,-2.927 5.179,-2.927 C 5.179,-2.927 5.337,-2.848 5.337,-2.848 L 5.281,-2.613 C 5.093,-1.828 4.814,-0.925 4.183,-0.162 C 3.386,0.803 2.216,1.292 0.705,1.292 C -0.811,1.292 -2.301,0.673 -3.38,-0.405"
             id="path243"
             style="fill:#4d6e15;fill-opacity:1;fill-rule:nonzero;stroke:none" /></g><g
           transform="translate(502.00228,154.62959)"
           id="g245"
           style="fill:#4d6e15;fill-opacity:1"><path
             d="M 0,0 C 3.056,0 3.386,-3.219 3.386,-4.603 C 3.386,-6.43 2.946,-9.494 0,-9.494 C -0.797,-9.494 -1.67,-9.174 -2.286,-8.66 L -2.286,-0.833 C -1.671,-0.319 -0.797,0 0,0 M -6.34,6.547 L -6.34,5.876 C -6.34,5.185 -5.879,5.121 -5.602,5.081 C -5.285,5.036 -5.073,5.006 -5.073,4.276 L -5.073,-11.063 L -4.258,-11.063 C -4.258,-11.063 -2.956,-9.938 -2.913,-9.902 C -1.859,-10.618 -0.489,-11.063 0.67,-11.063 C 4.121,-11.063 6.531,-8.435 6.531,-4.674 C 6.531,-0.997 4.189,1.57 0.836,1.57 C -0.263,1.57 -1.34,1.294 -2.286,0.777 L -2.286,6.656 L -6.34,6.547 z"
             id="path247"
             style="fill:#4d6e15;fill-opacity:1;fill-rule:nonzero;stroke:none" /></g><g
           transform="translate(458.35698,155.07529)"
           id="g249"
           style="fill:#4d6e15;fill-opacity:1"><path
             d="M 0,0 L 0,0.869 L -3.839,0.759 L -3.839,0.04 C -3.839,-0.561 -3.408,-0.65 -3.15,-0.704 L -3.05,-0.724 C -2.88,-0.767 -2.668,-0.82 -2.668,-1.512 L -2.668,-13.864 C -2.668,-14.588 -2.881,-14.616 -3.202,-14.658 C -3.485,-14.696 -3.958,-14.758 -3.958,-15.465 L -3.958,-16.142 L 1.529,-16.142 L 1.529,-15.465 C 1.529,-14.726 1.017,-14.685 0.711,-14.662 C 0.354,-14.634 0.119,-14.616 0.119,-13.864 L 0.119,-10.654 L 0.123,-9.128 C 0.123,-9.128 0.119,-1.318 0.119,-1.279 C 0.735,-0.764 1.608,-0.446 2.405,-0.446 C 5.461,-0.446 5.791,-3.665 5.791,-5.049 C 5.791,-6.876 5.351,-9.94 2.405,-9.94 C 2.089,-9.94 1.758,-9.889 1.422,-9.79 C 1.407,-9.786 1.278,-9.744 1.278,-9.744 C 1.067,-9.688 0.906,-9.714 0.794,-9.817 C 0.559,-10.038 0.605,-10.567 0.684,-10.974 L 0.688,-10.994 L 0.708,-11.002 C 1.413,-11.297 2.161,-11.458 3.061,-11.508 C 4.671,-11.508 6.08,-10.949 7.137,-9.892 C 8.298,-8.731 8.936,-7.037 8.936,-5.119 C 8.936,-1.443 6.595,1.124 3.242,1.124 C 1.714,1.124 0.71,0.533 0,0"
             id="path251"
             style="fill:#4d6e15;fill-opacity:1;fill-rule:nonzero;stroke:none" /></g><g
           transform="translate(458.35698,155.07529)"
           id="g253"
           style="fill:#4d6e15;fill-opacity:1"><path
             d="M 0,0 L 0,0.869 L -3.839,0.759 L -3.839,0.04 C -3.839,-0.561 -3.408,-0.65 -3.15,-0.704 L -3.05,-0.724 C -2.88,-0.767 -2.668,-0.82 -2.668,-1.512 L -2.668,-13.864 C -2.668,-14.588 -2.881,-14.616 -3.202,-14.658 C -3.485,-14.696 -3.958,-14.758 -3.958,-15.465 L -3.958,-16.142 L 1.529,-16.142 L 1.529,-15.465 C 1.529,-14.726 1.017,-14.685 0.711,-14.662 C 0.354,-14.634 0.119,-14.616 0.119,-13.864 L 0.119,-10.654 L 0.123,-9.128 C 0.123,-9.128 0.119,-1.318 0.119,-1.279 C 0.735,-0.764 1.608,-0.446 2.405,-0.446 C 5.461,-0.446 5.791,-3.665 5.791,-5.049 C 5.791,-6.876 5.351,-9.94 2.405,-9.94 C 2.089,-9.94 1.758,-9.889 1.422,-9.79 C 1.407,-9.786 1.278,-9.744 1.278,-9.744 C 1.067,-9.688 0.906,-9.714 0.794,-9.817 C 0.559,-10.038 0.605,-10.567 0.684,-10.974 L 0.688,-10.994 L 0.708,-11.002 C 1.413,-11.297 2.161,-11.458 3.061,-11.508 C 4.671,-11.508 6.08,-10.949 7.137,-9.892 C 8.298,-8.731 8.936,-7.037 8.936,-5.119 C 8.936,-1.443 6.595,1.124 3.242,1.124 C 1.714,1.124 0.71,0.533 0,0"
             id="path255"
             style="fill:#4d6e15;fill-opacity:1;fill-rule:nonzero;stroke:none" /></g><g
           transform="translate(471.20168,155.07529)"
           id="g257"
           style="fill:#4d6e15;fill-opacity:1"><path
             d="M 0,0 L 0,0.869 L -3.839,0.759 L -3.839,0.04 C -3.839,-0.561 -3.409,-0.65 -3.151,-0.704 C -3.151,-0.704 -3.05,-0.724 -3.05,-0.724 C -2.88,-0.767 -2.669,-0.82 -2.669,-1.512 L -2.669,-13.864 C -2.669,-14.588 -2.881,-14.616 -3.202,-14.658 C -3.486,-14.696 -3.959,-14.759 -3.959,-15.465 L -3.959,-16.142 L 1.529,-16.142 L 1.529,-15.465 C 1.529,-14.726 1.016,-14.685 0.71,-14.662 C 0.354,-14.634 0.119,-14.616 0.119,-13.864 L 0.119,-10.654 L 0.123,-9.128 C 0.123,-9.128 0.119,-1.318 0.119,-1.279 C 0.734,-0.764 1.608,-0.446 2.405,-0.446 C 5.461,-0.446 5.79,-3.665 5.79,-5.049 C 5.79,-6.876 5.351,-9.94 2.405,-9.94 C 2.088,-9.94 1.758,-9.889 1.421,-9.79 C 1.405,-9.785 1.394,-9.781 1.394,-9.781 C 1.392,-9.78 1.277,-9.744 1.277,-9.744 C 1.067,-9.688 0.905,-9.714 0.793,-9.817 C 0.559,-10.038 0.604,-10.567 0.684,-10.974 L 0.687,-10.994 L 0.707,-11.002 C 1.413,-11.297 2.16,-11.458 3.06,-11.508 C 4.67,-11.508 6.08,-10.949 7.137,-9.892 C 8.297,-8.732 8.936,-7.037 8.936,-5.119 C 8.936,-1.443 6.595,1.124 3.242,1.124 C 1.713,1.124 0.71,0.533 0,0"
             id="path259"
             style="fill:#4d6e15;fill-opacity:1;fill-rule:nonzero;stroke:none" /></g><g
           transform="translate(471.20168,155.07529)"
           id="g261"
           style="fill:#4d6e15;fill-opacity:1"><path
             d="M 0,0 L 0,0.869 L -3.839,0.759 L -3.839,0.04 C -3.839,-0.561 -3.409,-0.65 -3.151,-0.704 C -3.151,-0.704 -3.05,-0.724 -3.05,-0.724 C -2.88,-0.767 -2.669,-0.82 -2.669,-1.512 L -2.669,-13.864 C -2.669,-14.588 -2.881,-14.616 -3.202,-14.658 C -3.486,-14.696 -3.959,-14.759 -3.959,-15.465 L -3.959,-16.142 L 1.529,-16.142 L 1.529,-15.465 C 1.529,-14.726 1.016,-14.685 0.71,-14.662 C 0.354,-14.634 0.119,-14.616 0.119,-13.864 L 0.119,-10.654 L 0.123,-9.128 C 0.123,-9.128 0.119,-1.318 0.119,-1.279 C 0.734,-0.764 1.608,-0.446 2.405,-0.446 C 5.461,-0.446 5.79,-3.665 5.79,-5.049 C 5.79,-6.876 5.351,-9.94 2.405,-9.94 C 2.088,-9.94 1.758,-9.889 1.421,-9.79 C 1.405,-9.785 1.394,-9.781 1.394,-9.781 C 1.392,-9.78 1.277,-9.744 1.277,-9.744 C 1.067,-9.688 0.905,-9.714 0.793,-9.817 C 0.559,-10.038 0.604,-10.567 0.684,-10.974 L 0.687,-10.994 L 0.707,-11.002 C 1.413,-11.297 2.16,-11.458 3.06,-11.508 C 4.67,-11.508 6.08,-10.949 7.137,-9.892 C 8.297,-8.732 8.936,-7.037 8.936,-5.119 C 8.936,-1.443 6.595,1.124 3.242,1.124 C 1.713,1.124 0.71,0.533 0,0"
             id="path263"
             style="fill:#4d6e15;fill-opacity:1;fill-rule:nonzero;stroke:none" /></g><g
           transform="translate(532.55758,152.31499)"
           id="g265"
           style="fill:#4d6e15;fill-opacity:1"><path
             d="M 0,0 C 0,-2.312 2.032,-2.981 3.826,-3.572 C 5.363,-4.078 6.814,-4.555 6.814,-5.966 C 6.814,-7.402 5.166,-7.922 4.058,-7.922 C 2.926,-7.922 2.376,-7.65 2.376,-7.089 C 2.376,-6.999 2.405,-6.889 2.436,-6.782 C 2.468,-6.668 2.501,-6.549 2.501,-6.44 C 2.501,-5.664 1.607,-5.252 0.962,-5.252 C 0.207,-5.252 -0.574,-5.771 -0.574,-6.64 C -0.574,-8.501 2.597,-9.101 4.133,-9.101 C 6.657,-9.101 9.34,-7.696 9.34,-5.092 C 9.34,-2.696 7.213,-2.005 5.337,-1.395 C 3.762,-0.881 2.4,-0.44 2.4,0.849 C 2.4,1.946 3.682,2.53 4.607,2.53 C 4.978,2.53 5.84,2.473 5.84,1.946 L 5.789,1.422 C 5.789,0.667 6.543,0.259 7.253,0.259 C 7.991,0.259 8.74,0.701 8.74,1.547 C 8.74,3.257 6.298,3.708 5.007,3.708 C 2.927,3.708 0,2.558 0,0"
             id="path267"
             style="fill:#4d6e15;fill-opacity:1;fill-rule:nonzero;stroke:none" /></g><g
           transform="translate(484.21118,146.33579)"
           id="g269"
           style="fill:#4d6e15;fill-opacity:1"><path
             d="M 0,0 C 0,-2.02 1.472,-0.663 1.472,-1.933 L 1.472,-2.815 L -4.3,-2.815 L -4.3,-1.933 C -4.3,-0.634 -2.771,-2.048 -2.771,0 L -2.771,12.076 C -2.771,14.124 -4.3,12.71 -4.3,14.009 L -4.3,14.889 L 0,15.006 L 0,0 z"
             id="path271"
             style="fill:#4d6e15;fill-opacity:1;fill-rule:nonzero;stroke:none" /></g><g
           transform="translate(530.65578,158.15939)"
           id="g273"
           style="fill:#4d6e15;fill-opacity:1"><path
             d="M 0,0 C 0,-0.544 0.458,-1.001 1.003,-1.001 C 1.003,-1.001 1.144,-0.987 1.215,-0.979 C 1.214,-1.491 1.035,-2.111 0.574,-2.649 L 0.499,-2.739 L 0.871,-3.111 L 0.96,-3.02 C 1.797,-2.183 2.222,-1.328 2.222,-0.482 C 2.222,0.24 1.853,1.015 1.046,1.015 C 0.459,1.015 0,0.568 0,0"
             id="path275"
             style="fill:#4d6e15;fill-opacity:1;fill-rule:nonzero;stroke:none" /></g><g
           transform="translate(445.17358,159.94999)"
           id="g277"
           style="fill:#4d6e15;fill-opacity:1"><path
             d="M 0,0 C 0.012,-0.035 0.026,-0.072 0.026,-0.072 C 0.574,-1.691 1.651,-4.845 2.731,-7.865 L -2.77,-7.865 C -2.726,-7.741 -0.071,-0.203 0,0 M 0.103,5.186 L 0.103,5.187 L -0.033,5.091 C -0.032,5.092 -0.166,5.002 -0.166,5.002 C -0.714,4.645 -1.248,4.257 -1.248,3.785 C -1.248,3.514 -1.113,3.14 -1.023,2.893 C -1.023,2.893 -0.998,2.823 -0.989,2.798 C -1.002,2.762 -6.171,-11.873 -6.171,-11.873 C -6.86,-13.807 -7.45,-14.011 -7.841,-14.145 C -8.127,-14.245 -8.484,-14.368 -8.484,-15.128 L -8.484,-15.996 L -3.301,-15.996 L -3.301,-15.128 C -3.301,-14.322 -3.672,-14.15 -4.052,-14.042 C -4.397,-13.946 -4.555,-13.901 -4.555,-13.438 C -4.555,-13.018 -4.282,-12.234 -4.135,-11.813 C -4.135,-11.813 -4.121,-11.77 -4.121,-11.77 C -4.121,-11.77 -4.121,-11.769 -3.675,-10.435 C -3.675,-10.435 -3.538,-10.022 -3.52,-9.969 L 3.492,-9.969 C 3.512,-10.022 3.983,-11.307 3.983,-11.307 C 6.506,-17.036 11.974,-16.238 12.032,-16.229 L 12.067,-16.224 L 11.996,-14.089 C 8.375,-14.089 7.693,-11.667 5.703,-6.219 L 4.087,-1.761 L 1.648,5.041 C 1.608,5.153 1.394,5.702 1.088,5.725 C 0.958,5.735 0.842,5.713 0.103,5.186"
             id="path279"
             style="fill:#4d6e15;fill-opacity:1;fill-rule:nonzero;stroke:none" /></g><g
           transform="translate(542.58608,154.53679)"
           id="g281"
           style="fill:#4d6e15;fill-opacity:1"><path
             d="M 0,0 C 0,-0.164 0.128,-0.228 0.273,-0.228 C 0.368,-0.228 0.513,-0.2 0.513,-0.074 C 0.513,0.059 0.328,0.081 0.147,0.13 C -0.036,0.178 -0.221,0.249 -0.221,0.48 C -0.221,0.732 0.017,0.853 0.24,0.853 C 0.498,0.853 0.734,0.741 0.734,0.456 L 0.472,0.456 C 0.463,0.605 0.358,0.643 0.228,0.643 C 0.142,0.643 0.041,0.606 0.041,0.503 C 0.041,0.408 0.1,0.396 0.409,0.316 C 0.499,0.294 0.776,0.237 0.776,-0.043 C 0.776,-0.269 0.598,-0.439 0.263,-0.439 C -0.01,-0.439 -0.266,-0.304 -0.263,0 L 0,0 z"
             id="path283"
             style="fill:#4d6e15;fill-opacity:1;fill-rule:nonzero;stroke:none" /></g><g
           transform="translate(543.52228,155.36069)"
           id="g285"
           style="fill:#4d6e15;fill-opacity:1"><path
             d="M 0,0 L 0.382,0 L 0.67,-0.848 L 0.674,-0.848 L 0.947,0 L 1.328,0 L 1.328,-1.233 L 1.074,-1.233 L 1.074,-0.359 L 1.071,-0.359 L 0.768,-1.233 L 0.56,-1.233 L 0.257,-0.368 L 0.254,-0.368 L 0.254,-1.233 L 0,-1.233 L 0,0 z"
             id="path287"
             style="fill:#4d6e15;fill-opacity:1;fill-rule:nonzero;stroke:none" /></g><g
           transform="translate(470.65548,159.67459)"
           id="g289"><path
             d="M 0,0 C -1.722,-0.47 -2.859,0.08 -4.09,-0.007 C -5.456,-0.105 -5.964,-0.623 -8.319,-0.698 C -10.791,-0.677 -12.657,0.777 -13.776,3.091 C -16.131,7.957 -15.608,12.167 -15.078,14.413 C -14.3,17.709 -12.596,19.376 -9.52,18.825 C -7.73,18.504 -6.215,17.358 -4.138,17.098 C -3.108,16.97 -1.996,17.2 -0.696,17.516 C 0.306,17.76 1.209,17.79 2.102,17.58 C 3.523,17.247 4.467,16.656 5.198,15.082 C 6.611,12.04 6.566,7.967 3.795,3.458 C 2.814,1.861 1.451,0.396 0,0"
             id="path291"
             style="fill:#b20c35;fill-opacity:1;fill-rule:nonzero;stroke:none" /></g><g
           transform="translate(466.08258,181.56109)"
           id="g293"><path
             d="M 0,0 C 0,0 -0.065,1.325 0.742,2.808 C 1.548,4.291 3.341,5.273 4.518,5.479 C 5.695,5.685 6.419,5.809 6.811,6.275 C 7.123,6.644 7.377,6.5 7.369,6.13 C 7.362,5.873 7.269,5.21 7.173,4.584 C 7.076,3.957 6.775,2.447 6.112,1.419 C 5.119,-0.124 3.79,-0.49 2.64,-0.603 C 1.513,-0.713 0.549,-0.296 0,0"
             id="path295"
             style="fill:#deec4e;fill-opacity:1;fill-rule:nonzero;stroke:none" /></g></g></g><g
       transform="translate(1.2314839,-0.9236129)"
       id="g297"><g
         id="g299"><g
           id="g305"><g
             id="g307"><path
               d="M 472.019,188.95 C 471.847,188.212 471.19,186.604 469.01,184.813 L 469.01,184.813 C 466.6,182.833 464.851,182.485 464.851,182.485 L 464.851,182.485 C 465.4,182.189 466.364,181.771 467.491,181.882 L 467.491,181.882 C 468.641,181.995 469.97,182.361 470.963,183.904 L 470.963,183.904 C 471.626,184.932 471.927,186.442 472.024,187.069 L 472.024,187.069 C 472.12,187.695 472.213,188.358 472.219,188.615 L 472.219,188.615 C 472.224,188.8 472.145,188.92 472.03,188.951 L 472.03,188.951 L 472.019,188.95 z"
               id="path315"
               style="fill:url(#linearGradient309);stroke:none" /></g></g></g></g><g
       transform="translate(1.2314839,-0.9236129)"
       id="g317"><g
         clip-path="url(#clipPath321)"
         id="g319"><g
           transform="translate(468.3966,163.7476)"
           id="g325"><path
             d="M 0,0 C -1.702,-0.222 -2.694,0.507 -3.88,0.431 C -5.197,0.347 -5.748,-0.08 -8.017,-0.145 C -10.401,-0.127 -12.199,0.889 -13.278,2.896 C -15.547,7.117 -15.276,11.02 -14.56,12.92 C -13.724,15.139 -12.458,16.509 -10.681,16.842 C -7.791,17.384 -6.812,15.944 -4.208,15.288 C -3.064,15 -2.121,14.961 -1.003,15.232 C 0.562,15.612 1.178,15.674 2.062,15.517 C 3.531,15.254 4.512,14.25 5.056,13.082 C 6.308,10.39 6.483,6.471 3.983,2.853 C 3.029,1.472 1.371,0.136 0,0 M 6.254,13.528 C 5.356,15.664 3.909,16.927 2.003,17.216 C 0.746,17.406 0.013,16.94 -1.239,16.781 C -2.076,16.675 -2.839,16.685 -3.619,16.961 C -5.602,17.663 -7.137,19.061 -9.195,19.344 C -11.792,19.701 -13.962,17.64 -14.841,16.305 C -16.915,13.152 -16.89,7.07 -14.607,2.201 C -14.607,2.201 -14.094,1.219 -13.801,0.748 C -12.897,-0.707 -11.339,-2.362 -8.229,-2.514 C -5.959,-2.448 -4.75,-1.761 -3.844,-1.665 C -2.969,-1.571 -1.799,-2.207 0.056,-1.911 C 2.38,-1.54 5.044,2.378 5.044,2.378 C 7,5.337 7.936,9.524 6.254,13.528"
             id="path327"
             style="fill:#ee2622;fill-opacity:1;fill-rule:nonzero;stroke:none" /></g><g
           transform="translate(460.1639,177.2679)"
           id="g329"><path
             d="M 0,0 C 0,0 -2.398,-0.876 -3.227,-3.733 C -4.084,-6.688 -5.168,-0.704 0,0"
             id="path331"
             style="fill:#ffffff;fill-opacity:1;fill-rule:nonzero;stroke:none" /></g></g></g></g></svg>